<svg xmlns="http://www.w3.org/2000/svg" viewBox="0 0 512 512">
  <rect width="512" height="512" fill="#e5e5e5"/>

  <!-- Cabello + cuerpo -->
  <path fill="#000" d="
    M256 54
    C178 54 138 108 138 190
    L138 250
    C138 306 112 335 88 350
    C55 372 38 408 38 448
    C38 478 92 492 256 492
    C420 492 474 478 474 448
    C474 408 457 372 424 350
    C400 335 374 306 374 250
    L374 190
    C374 108 334 54 256 54
    Z"/>

  <!-- Cara -->
  <path fill="#e5e5e5" d="
    M256 111
    C209 111 176 147 176 199
    C176 274 212 326 256 326
    C300 326 336 274 336 199
    C336 147 303 111 256 111
    Z"/>

  <!-- Flequillo -->
  <path fill="#000" d="
    M176 182
    C181 123 219 90 270 92
    C310 94 339 120 346 171
    L346 184
    L224 122
    C202 132 185 151 176 182
    Z"/>

  <!-- Cuello / abertura -->
  <path fill="#e5e5e5" d="
    M195 323
    C211 351 231 363 256 363
    C281 363 301 351 317 323
    C315 349 336 368 372 376
    C344 405 304 420 256 420
    C208 420 168 405 140 376
    C176 368 197 349 195 323
    Z"/>
</svg>