<svg xmlns="http://www.w3.org/2000/svg" viewBox="0 0 512 512">
  <rect width="512" height="512" fill="#e9e9e9"/>

  <!-- Silueta -->
  <path fill="#000" d="
    M256 38
    C186 38 136 86 136 153
    L136 171
    C126 174 119 187 123 207
    C126 223 135 236 145 238
    C160 304 202 349 256 349
    C310 349 352 304 367 238
    C377 236 386 223 389 207
    C393 187 386 174 376 171
    L376 153
    C376 86 326 38 256 38
    Z

    M149 318
    C81 331 43 379 36 459
    C35 472 45 484 58 484
    L454 484
    C467 484 477 472 476 459
    C469 379 431 331 363 318
    L307 406
    L289 350
    L223 350
    L205 406
    Z
  "/>

  <!-- Rostro vacío -->
  <path fill="#e9e9e9" d="
    M256 105
    C224 105 209 116 189 116
    C171 116 158 132 158 169
    C158 252 200 318 256 318
    C312 318 354 252 354 169
    C354 132 341 116 323 116
    C303 116 288 105 256 105
    Z
  "/>

  <!-- Cabello frontal -->
  <path fill="#000" d="
    M145 169
    C148 91 190 49 256 49
    C324 49 366 94 367 171
    C349 127 320 111 284 118
    C247 125 212 115 188 117
    C165 119 153 139 145 169
    Z
  "/>

  <!-- Cuello/camisa -->
  <path fill="#e9e9e9" d="
    M196 333
    L233 367
    L256 348
    L279 367
    L316 333
    L301 412
    L256 440
    L211 412
    Z
  "/>

  <!-- Corbata -->
  <path fill="#000" d="
    M233 351
    L279 351
    L268 381
    L282 452
    L230 452
    L244 381
    Z
  "/>
</svg>